<svg xmlns="http://www.w3.org/2000/svg" width="297.209" height="116.733" viewBox="0 0 297.209 116.733">
  <g id="Signature" transform="translate(-295.856 -551.535)">
    <g id="Group_1389" data-name="Group 1389" transform="translate(300.61 551.535)">
      <path id="Path_242" data-name="Path 242" d="M348.639,560.5q-2.529,7.617-5.654,15c-.053.15-.126.32-.208.5q-2.929,6.992-6.042,13.921a19.2,19.2,0,0,0,5.286-2.52,32.686,32.686,0,0,0,3.242-2.433.438.438,0,0,1,.252-.068.359.359,0,0,1,.237.077.448.448,0,0,1,.1.262.324.324,0,0,1-.107.223,25.885,25.885,0,0,1-6.8,4.865,17.774,17.774,0,0,1-2.839,1.022q-5.08,11.222-10.762,22.162T313.161,634.9c-.116.184-.266.407-.451.673-.669,1.071-1.633,2.5-2.883,4.274a56.44,56.44,0,0,1-4.046,5.112,13.689,13.689,0,0,1-4.119,3.358,2.183,2.183,0,0,1-3.116-1.022,12.771,12.771,0,0,1-1.226-4.07,54.573,54.573,0,0,1-.475-8.281,139.16,139.16,0,0,1,1.085-14.856,117.6,117.6,0,0,1,2.98-15.52,67.429,67.429,0,0,1,5.18-13.814l.044-.121a31.333,31.333,0,0,1,2.248-3.561,11,11,0,0,1,3.077-2.869,5.81,5.81,0,0,1,3.237-.765,9.13,9.13,0,0,1,3.28.833,37.28,37.28,0,0,1,4.341,2.335q1.453.865,2.893,1.628a20.772,20.772,0,0,0,2.752,1.245q3.627-5.182,6.837-10.63t6.289-11.009q2.348-4.259,4.758-8.426a13.884,13.884,0,0,1,1.2-1.778l0-.029a3.1,3.1,0,0,1,.833-.79.7.7,0,0,1,.325-.15.924.924,0,0,1,.6.082.818.818,0,0,1,.4.421,2.646,2.646,0,0,1-.015,1.323c-.116.562-.247,1.066-.388,1.541C348.736,560.212,348.682,560.362,348.639,560.5Zm-43.467,83.635a63.179,63.179,0,0,0,5.359-7.418q2.726-4.339,5.059-8.576c1.555-2.83,2.806-5.146,3.745-6.972.276-.5.509-.935.7-1.3q7.123-13.911,13.654-28.132a15.415,15.415,0,0,1-5.722-.751q-1.9,2.958-3.963,5.815a40.16,40.16,0,0,1-2.7,3.261,10.96,10.96,0,0,1-2.641,2.176,4.8,4.8,0,0,1-1.459.538,1.435,1.435,0,0,1-.974-.184,1.166,1.166,0,0,1-.548-.8,1.286,1.286,0,0,1,1.328-1.555,6.447,6.447,0,0,0,3.212-1.691,30.665,30.665,0,0,0,3.5-3.566c1.148-1.371,2.147-2.636,3-3.809a.491.491,0,0,0,.073-.392.419.419,0,0,0-.257-.3,27.713,27.713,0,0,1-3.837-1.909c-.63-.349-1.255-.727-1.88-1.119a20.959,20.959,0,0,0-5.247-2.539,5.019,5.019,0,0,0-5.039,1.5A35.022,35.022,0,0,0,304.1,597.71a94.593,94.593,0,0,0-4.332,15.67,122.674,122.674,0,0,0-2.04,16.362,67.615,67.615,0,0,0,.407,13.339,16.506,16.506,0,0,0,.378,1.778,8.061,8.061,0,0,0,.751,1.967,1.392,1.392,0,0,0,1.211.872C301.852,647.379,303.412,646.192,305.171,644.133Zm24.086-54.214a13.692,13.692,0,0,0,5.068.465q5.167-11.25,9.943-22.691,1.57-3.772,2.927-7.646a3.008,3.008,0,0,1,.1-.412h0c-.1.165-.2.325-.32.489-.4.553-.795,1.119-1.178,1.686q-3.852,6.083-7.709,12.627-2.595,4.361-5.1,8.46c-.145.247-.3.489-.446.732q-1.737,2.856-3.518,5.683a.408.408,0,0,0-.019.359A.442.442,0,0,0,329.258,589.918Z" transform="translate(-296.837 -531.877)" fill="#2e2e2e"/>
      <path id="Path_243" data-name="Path 243" d="M321.708,562.453a.322.322,0,0,1,.329-.223.432.432,0,0,1,.329.184.373.373,0,0,1,.024.393,56.3,56.3,0,0,1-4.375,5.916c-.509.635-1.047,1.255-1.618,1.841l-.077.058a6.448,6.448,0,0,1-1.425,1.2,1.56,1.56,0,0,1-.412.184l-.082.01a1.489,1.489,0,0,1-1.046-.213,1.676,1.676,0,0,1-.654-.848,4.6,4.6,0,0,1-.184-.7.243.243,0,0,0-.189-.194.184.184,0,0,0-.218.1l-.252.364q-.865,1.316-1.856,2.549a1.255,1.255,0,0,0-.16.16,4.85,4.85,0,0,1-.552.582,1.9,1.9,0,0,1-.717.4l-.073,0-.1.01a2.083,2.083,0,0,1-1.633-.538,2.751,2.751,0,0,1-.824-1.56,8.469,8.469,0,0,1,.252-3.431,13.01,13.01,0,0,1,1.371-3.2,8.542,8.542,0,0,1,1.846-2.142,4.992,4.992,0,0,1,2.568-1.119,4.237,4.237,0,0,1,2.05.228,1.183,1.183,0,0,1,.712.6,1.389,1.389,0,0,1,.116.829.2.2,0,0,0,.044.223.78.78,0,0,1,.228.286l.068.223a1.144,1.144,0,0,1,.034.2.665.665,0,0,1,0,.141.348.348,0,0,1-.034.121.679.679,0,0,1-.058.233c-.194.383-.388.732-.581,1.051a1.394,1.394,0,0,0-.175.276l-.2.31a.354.354,0,0,0-.073.121l-.024.058a9.2,9.2,0,0,0-.446,2.413q0,.255.014.582a1.58,1.58,0,0,0,.145.586.5.5,0,0,0,.417.291l.029-.005.048,0a1.564,1.564,0,0,0,.543-.315l.029-.029a7.277,7.277,0,0,0,.862-.741,49.832,49.832,0,0,0,4.652-5.48.227.227,0,0,1,.053-.087C320.889,563.732,321.316,563.1,321.708,562.453Zm-11.629,6.822.082-.092c.945-1.357,1.87-2.723,2.757-4.128a.334.334,0,0,0,0-.228.2.2,0,0,0-.184-.126,3.093,3.093,0,0,0-2.718,1.5,10.14,10.14,0,0,0-1.541,3.033,6,6,0,0,0-.3,2.486c.267-.329.5-.635.707-.9s.407-.533.62-.8S309.915,569.5,310.079,569.275Z" transform="translate(-262.096 -510.517)" fill="#2e2e2e"/>
      <path id="Path_244" data-name="Path 244" d="M321.244,563.74a.263.263,0,0,1,.257-.141.336.336,0,0,1,.257.146.261.261,0,0,1,0,.31,87.354,87.354,0,0,1-6.1,8.106,16.611,16.611,0,0,1-1.933,1.89,5.692,5.692,0,0,1-2.379,1.192,2.15,2.15,0,0,1-1.938-.533,3.05,3.05,0,0,1-.814-1.875,10.574,10.574,0,0,1,.63-4.317,18.448,18.448,0,0,1,1.9-4.041,6.229,6.229,0,0,1,3.246-2.825.665.665,0,0,0,.136-.039l.112-.014a1.792,1.792,0,0,1,1.7.872,1.691,1.691,0,0,1-.17,1.885,3.886,3.886,0,0,1-.465.528,1.023,1.023,0,0,1-1.085.237,1.079,1.079,0,0,1-.649-.775,11.9,11.9,0,0,0-2.234,3.247,14.928,14.928,0,0,0-1.25,3.372,7.578,7.578,0,0,0-.262,1.555,1.678,1.678,0,0,0,.373,1.347,1.448,1.448,0,0,0,.271.106,3.736,3.736,0,0,0,2.544-.79A15.17,15.17,0,0,0,316,570.959a25.005,25.005,0,0,0,1.89-2.214c.4-.509.8-1.047,1.182-1.594A40.052,40.052,0,0,0,321.244,563.74Z" transform="translate(-251.723 -512.84)" fill="#2e2e2e"/>
      <path id="Path_245" data-name="Path 245" d="M325.5,562.087a.4.4,0,0,1,.078.194.335.335,0,0,1-.039.2,10.32,10.32,0,0,1-2.088,2.234,13.352,13.352,0,0,1-1.991,1.381,13.77,13.77,0,0,1-2.738,1.284.262.262,0,0,0-.179.189c-.1.388-.189.717-.281.969a11.424,11.424,0,0,1-1.657,3.29,4.131,4.131,0,0,1-3.028,1.822h-.252a.933.933,0,0,1-.232-.01l-.029,0-.232-.034-.029-.029a2.9,2.9,0,0,1-2.282-2.321,6.878,6.878,0,0,1,.141-3.484,10.059,10.059,0,0,1,1.575-3.261,7.059,7.059,0,0,1,2.781-2.3,5.6,5.6,0,0,1,2.006-.456,1.329,1.329,0,0,1,1.444,1.308,1.266,1.266,0,0,1-.383,1.037,1.409,1.409,0,0,1-1.042.417,4.056,4.056,0,0,0-3.164,1.744,7.4,7.4,0,0,0-1.517,3.426,3.7,3.7,0,0,0,.029,1.328,1.118,1.118,0,0,0,.785.877l.121.044.141.014.121.015a2.87,2.87,0,0,0,2.079-1.3,10.769,10.769,0,0,0,1.565-2.82.284.284,0,0,0-.019-.16.11.11,0,0,0-.121-.058,1.626,1.626,0,0,1-.557-.2.9.9,0,0,1-.373-1.018,2.957,2.957,0,0,1,.5-1.081,2.784,2.784,0,0,1,.77-.712.87.87,0,0,1,.988.034,1.913,1.913,0,0,1,.368,1.7.181.181,0,0,0,.058.126.073.073,0,0,0,.1,0,1.972,1.972,0,0,0,.388-.121,15.519,15.519,0,0,0,3.169-1.7,10.363,10.363,0,0,0,2.578-2.52.334.334,0,0,1,.2-.121A.305.305,0,0,1,325.5,562.087Zm-8.208,4.724.087-.01a.225.225,0,0,0,.111-.058.283.283,0,0,0,.073-.1,3.968,3.968,0,0,0,.126-1.013V565.6a2.821,2.821,0,0,0-.31.286,4.489,4.489,0,0,0-.252.393.842.842,0,0,0-.126.417v.029a.366.366,0,0,0,.116.043Z" transform="translate(-244.843 -512.234)" fill="#2e2e2e"/>
      <path id="Path_246" data-name="Path 246" d="M327.372,558.332a3.23,3.23,0,0,1-.271,1.342,1.184,1.184,0,0,1-.068.174c-.184.456-.388.906-.611,1.342q-1.97,3.707-4.288,7.67-1.541,2.631-2.9,5.083-1.235,2.173-2.447,4.375a.918.918,0,0,1-.044.146c-.087.276-.165.543-.238.8a3.629,3.629,0,0,1-.107.349c-.354,1.216-.722,2.684-1.09,4.4a9.859,9.859,0,0,0-.213,4.089.172.172,0,0,0,.082-.039,6.044,6.044,0,0,0,2.36-2.413,16.075,16.075,0,0,0,1.895-4.1q.632-2.123-.184-3.135a.436.436,0,0,1-.189-.509.507.507,0,0,1,.446-.373c1.284-.049,2.587-.116,3.886-.208q.342-.008.683-.044c.984-.034,1.967-.112,2.941-.228.077,0,.145-.015.2-.019a.39.39,0,0,1,.305.039.432.432,0,0,1,.179.228.4.4,0,0,1-.029.3.366.366,0,0,1-.237.179,2.387,2.387,0,0,1-.281.058c-.523.068-1.042.131-1.55.18-.053.009-.121.015-.2.024-1.6.135-3.207.261-4.811.387a4.718,4.718,0,0,1,.47,2.461,13.882,13.882,0,0,1-2.05,6.11A9.562,9.562,0,0,1,317,589.4a2.657,2.657,0,0,1-2.883.562,2.554,2.554,0,0,1-1.25-2.234,12.055,12.055,0,0,1,.189-2.8c0-.073,0-.155,0-.223a61.907,61.907,0,0,1,3.624-11.832c.218-.63.751-1.88,1.584-3.745s1.812-3.828,2.941-5.882a22.505,22.505,0,0,1,3.324-4.768c1.08-1.124,2.016-1.245,2.786-.378a.124.124,0,0,0,.039.087v.029Zm-12.331,29.746,0,.029Zm10.485-27.308c.049-.116.087-.242.136-.359.1-.2.179-.4.257-.591a.355.355,0,0,0-.034-.339.458.458,0,0,0-.276-.179.344.344,0,0,0-.329.121c-.223.252-.383.451-.485.586a28.619,28.619,0,0,0-2.316,3.828q-1.017,2.013-1.9,4.07-1.061,2.5-2.006,5.073A89.514,89.514,0,0,0,324.3,563.4C324.731,562.538,325.138,561.666,325.526,560.769Z" transform="translate(-235.248 -528.466)" fill="#2e2e2e"/>
      <path id="Path_247" data-name="Path 247" d="M380.325,551.578a8.315,8.315,0,0,1,5.272,1.061c1.381.877,1.788,2.52,1.226,4.913a12.957,12.957,0,0,1-.669,1.89.525.525,0,0,1-.441.315.543.543,0,0,1-.46-.2.492.492,0,0,1-.082-.528,15.286,15.286,0,0,0,.514-1.73,4.281,4.281,0,0,0-.019-2.389,2.46,2.46,0,0,0-1.705-1.526,12.022,12.022,0,0,0-4.632-.087,35.255,35.255,0,0,0-5.214,1.216c-1.73.543-3.261,1.061-4.579,1.555a151.524,151.524,0,0,0-20.665,9.768A155.021,155.021,0,0,0,329.7,578.286c-.926.678-2.146,1.681-3.682,3.013a31.457,31.457,0,0,0-4.051,4.211c-1.163,1.478-1.672,2.767-1.526,3.876a7.277,7.277,0,0,0,3.5,3.668,40.126,40.126,0,0,0,6.405,3.028c2.369.887,4.472,1.618,6.294,2.2.707.228,1.318.431,1.827.615.828.281,1.652.548,2.481.81q3.409,1.061,6.74,2.389a1.083,1.083,0,0,0,1.042-.136q2.7-1.853,5.461-3.619,2.878-1.8,5.887-3.343a.225.225,0,0,1,.141-.029.141.141,0,0,1,.126.087.181.181,0,0,1,.044.169.162.162,0,0,1-.107.117,103.148,103.148,0,0,0-10.863,7.234.185.185,0,0,0-.068.155.162.162,0,0,0,.1.131,10.521,10.521,0,0,1,2.4,1.492,2.4,2.4,0,0,1,.9,2.461,9.684,9.684,0,0,1-2.35,3.542,30.357,30.357,0,0,1-3.886,3.377,31.437,31.437,0,0,1-3.687,2.389,18.5,18.5,0,0,1-3.208,1.444,5.664,5.664,0,0,1-3.421.179,1.5,1.5,0,0,0-.15-.044.471.471,0,0,1-.15-.1.309.309,0,0,1-.15-.073l-.121-.1a1.84,1.84,0,0,1-.78-1.521,3.555,3.555,0,0,1,.518-1.7,17.858,17.858,0,0,1,2.709-3.469,72.492,72.492,0,0,1,7.675-6.6.375.375,0,0,0,.155-.363.38.38,0,0,0-.242-.281c-2.011-.7-3.876-1.3-5.6-1.788-.964-.31-1.711-.547-2.239-.722-.63-.208-1.289-.417-1.977-.635q-4.143-1.243-8.615-3.028a24.734,24.734,0,0,1-7.345-4.351,5.765,5.765,0,0,1-1.982-4.133,7.766,7.766,0,0,1,1.686-4.307q3.481-4.71,11.062-10.214a151.337,151.337,0,0,1,16.93-10.539,154.412,154.412,0,0,1,18.117-8.406A53.655,53.655,0,0,1,380.325,551.578ZM349.955,605.41a13.162,13.162,0,0,0-1.992-1.027,1.073,1.073,0,0,0-1.037.135,72.432,72.432,0,0,0-7.907,7.137l-.155.184c-.518.567-1.032,1.2-1.555,1.894a5.7,5.7,0,0,0-1.022,2.074.476.476,0,0,0,.242.431l.034.029.029.019.034.029.024-.005.029.029a5.982,5.982,0,0,0,3.556-.707,26.156,26.156,0,0,0,4-2.393,33.587,33.587,0,0,0,3.023-2.423q.683-.618,1.589-1.56a13.4,13.4,0,0,0,1.526-1.89,1.413,1.413,0,0,0-.422-1.957Z" transform="translate(-215.835 -551.535)" fill="#2e2e2e"/>
      <path id="Path_248" data-name="Path 248" d="M343.473,560.52a.312.312,0,0,1,.281-.141.344.344,0,0,1,.257.146.321.321,0,0,1,0,.344c-.3.451-.591.911-.887,1.4-.247.368-.5.741-.746,1.124-.145.228-.32.49-.518.795a35.807,35.807,0,0,1-2.592,3.653,5.676,5.676,0,0,1-3.077,2.243,1.908,1.908,0,0,1-1.841-.887,4.359,4.359,0,0,1-.615-2.064l-.034-.044-.053,0a.075.075,0,0,0-.058.034,25.162,25.162,0,0,1-2.03,3.28,5.571,5.571,0,0,1-2.219,1.928,2.132,2.132,0,0,1-.61.146,3.145,3.145,0,0,1-.373.009c-.078-.015-.145-.024-.2-.039a.3.3,0,0,1-.17-.039,2.613,2.613,0,0,1-1.812-2.132,9.008,9.008,0,0,1-.039-2.99,17.256,17.256,0,0,1,2.011-5.94,1.183,1.183,0,0,1,1.1-.572,1.257,1.257,0,0,1,.959.572,1.211,1.211,0,0,1,0,1.226,15.541,15.541,0,0,0-1.541,3.62,8.257,8.257,0,0,0-.32,3.818,1.329,1.329,0,0,0,.14.3l0,.029.029,0v.029h.029l.058-.01a8.078,8.078,0,0,0,2.457-2.82c.867-1.43,1.643-2.8,2.335-4.129.32-.606.582-1.1.795-1.5.242-.422.5-.858.78-1.3a.87.87,0,0,1,.77-.436.935.935,0,0,1,.712.383.9.9,0,0,1,.053.9l-.024.024-.019.063-.024.029a13.923,13.923,0,0,0-1.522,4.288,8.381,8.381,0,0,0-.116,1.381,3.1,3.1,0,0,0,.276,1.381,1.127,1.127,0,0,0,1.061.654,4.816,4.816,0,0,0,2.423-1.638,24.414,24.414,0,0,0,2.481-3.212c.785-1.2,1.449-2.244,1.987-3.13C343.192,560.995,343.342,560.743,343.473,560.52Z" transform="translate(-184.58 -518.39)" fill="#2e2e2e"/>
      <path id="Path_249" data-name="Path 249" d="M350.664,561.429a2,2,0,0,1,.271,1.444,8.71,8.71,0,0,1-.4,1.565c-.044.155-.087.305-.131.441q-1.243,3.547-2.733,6.948c-.082.174-.16.344-.238.5q-.741,1.73-1.579,3.663-3.656,8.38-6.682,15.844c-.829,2.02-1.555,4.065-2.185,6.149q-.043.145-.087.32a7.717,7.717,0,0,0-.417,2.723c.029.1.058.174.083.247a.492.492,0,0,0,.135.218.367.367,0,0,1,.068.223.217.217,0,0,1-.112.179.259.259,0,0,1-.247.053.616.616,0,0,1-.233-.15.783.783,0,0,1-.174-.213q-.836-1.715.4-6.217a92,92,0,0,1,3.348-9.841q2.122-5.342,3.939-9.55,1.25-2.943,1.841-4.458l.044-.116c.659-1.585,1.294-3.174,1.9-4.753a6.65,6.65,0,0,1,.252-.65.218.218,0,0,0-.048-.189.2.2,0,0,0-.15-.053.171.171,0,0,0-.136.1q-1.265,2.813-2.5,5.587-3.576,8.315-7.69,16.333a.327.327,0,0,0-.073.121,43.336,43.336,0,0,1-3.692,6.008l-.1.131a8.088,8.088,0,0,1-1.115,1.163,2,2,0,0,1-1.458.514.178.178,0,0,1-.087-.019l-.087-.015a1.528,1.528,0,0,1-.921-.625,2.81,2.81,0,0,1-.441-1.008,12.078,12.078,0,0,1,.155-4.559c.339-1.72.722-3.31,1.153-4.758.053-.238.107-.451.165-.644a155.625,155.625,0,0,1,7.626-20.128q1.5-3.263,3.271-6.425a20.31,20.31,0,0,1,1.536-2.379,2.95,2.95,0,0,1,1.081-.916,1.152,1.152,0,0,1,1.328.194l.029,0a1.4,1.4,0,0,0,.106.175l.116.189a.557.557,0,0,1,.058.15,1.744,1.744,0,0,1,.048.45,6,6,0,0,1-.4,1.211,1.944,1.944,0,0,0-.116.3c-.228.572-.46,1.129-.688,1.662q-2.922,6.541-6.144,12.932-2.522,5.073-5.16,10.093l-.029.034q-.509,1.475-.988,2.951a46.79,46.79,0,0,0-1.7,6.784.521.521,0,0,1-.039.238c-.024.305-.053.659-.087,1.076a5.114,5.114,0,0,0,.015,1.158,1.113,1.113,0,0,0,.344.761l.058,0a.31.31,0,0,0,.2-.034,1.6,1.6,0,0,0,.291-.16,6.139,6.139,0,0,0,1.207-1.119,26.685,26.685,0,0,0,2.03-2.825q2.871-4.761,5.272-9.759t4.666-10.073q.567-1.228,1.124-2.486c.266-.591.625-1.4,1.085-2.442s.824-1.846,1.09-2.418c.092-.2.2-.422.305-.659s.213-.46.32-.659.165-.32.18-.363a1.169,1.169,0,0,1,.514-.548,1.106,1.106,0,0,1,.853-.044A1.42,1.42,0,0,1,350.664,561.429Z" transform="translate(-172.841 -541.65)" fill="#2e2e2e"/>
      <path id="Path_250" data-name="Path 250" d="M345.276,564.587a.3.3,0,0,1,.271-.1.264.264,0,0,1,.2.155.266.266,0,0,1-.048.271c-.451.582-.921,1.148-1.4,1.71a87.187,87.187,0,0,1-6.149,7.021c-.4.383-.819.77-1.255,1.153a4.5,4.5,0,0,1-1.885,1.187c-.112.01-.233.024-.363.034a1.818,1.818,0,0,1-1.517-.649,2.953,2.953,0,0,1-.669-1.56,9.2,9.2,0,0,1,.174-3.14,16.239,16.239,0,0,1,.984-3.024,8.714,8.714,0,0,1,2.175-3.12,1.169,1.169,0,0,1,.9-.276,1.192,1.192,0,0,1,.828.446,1.174,1.174,0,0,1,.305.906,1.3,1.3,0,0,1-.441.848,9.377,9.377,0,0,0-2.117,3.431,8.134,8.134,0,0,0-.717,4.007.426.426,0,0,0,.174.3l.029.024a7.353,7.353,0,0,0,3.406-2.074,57.034,57.034,0,0,0,4.148-4.167C343.662,566.486,344.646,565.352,345.276,564.587Zm-7.748-2.171a3.785,3.785,0,0,1-1.192-.644,1.444,1.444,0,0,1-.586-1.178,3.249,3.249,0,0,1,.456-1.473,1.247,1.247,0,0,1,.93-.688,1.06,1.06,0,0,1,.959.5,1.721,1.721,0,0,1,.286,1.4,6.829,6.829,0,0,0-.15.872,4.949,4.949,0,0,1-.213.945A.36.36,0,0,1,337.528,562.417Z" transform="translate(-160.077 -525.026)" fill="#2e2e2e"/>
      <path id="Path_251" data-name="Path 251" d="M351.654,561.055a.285.285,0,0,1,.291-.087.353.353,0,0,1,.232.179.247.247,0,0,1-.058.291c-.1.1-.2.209-.305.315a29.994,29.994,0,0,1-3.377,2.995,7.768,7.768,0,0,1-3.867,1.715,2.075,2.075,0,0,1-.6-.029,1.915,1.915,0,0,1-1.269-.756.2.2,0,0,0-.194-.1.253.253,0,0,0-.2.131c-.208.368-.422.727-.63,1.09q-.923,1.664-1.9,3.3a5.052,5.052,0,0,0-.32.514,16.183,16.183,0,0,1-2.573,3.392,1.6,1.6,0,0,1-1.09.543,1.05,1.05,0,0,1-.974-.65,7.884,7.884,0,0,1-.247-3.629,40.383,40.383,0,0,1,.8-4.869,32.471,32.471,0,0,1,1.027-3.75,8.943,8.943,0,0,1,.465-1.076,1.314,1.314,0,0,1,2.447.354,1.285,1.285,0,0,1-.252,1.085,12.633,12.633,0,0,0-1.5,3,32.765,32.765,0,0,0-1.313,4.312,12.126,12.126,0,0,0-.412,3.619.232.232,0,0,0,.145.2.221.221,0,0,0,.242-.039,9.886,9.886,0,0,0,1.415-1.551c.485-.649.887-1.211,1.2-1.705a2.6,2.6,0,0,0,.174-.247,52.944,52.944,0,0,0,3.183-5.557.111.111,0,0,0,.024-.092,5.932,5.932,0,0,1,.625-2.461,15.34,15.34,0,0,1,1.337-2.186.891.891,0,0,1,.741-.339.915.915,0,0,1,.659.358.822.822,0,0,1,.112.8l-.01.058-.024.058-.01.058q-1.272,1.867-2.418,3.808c-.019.015-.024.044-.019.082a1.562,1.562,0,0,0,.281,1.1,1.352,1.352,0,0,0,1.076.484,7.048,7.048,0,0,0,3.944-1.633A17.991,17.991,0,0,0,351.654,561.055Z" transform="translate(-152.084 -522.966)" fill="#2e2e2e"/>
      <path id="Path_252" data-name="Path 252" d="M352.919,559.367a.323.323,0,0,1,.334-.218.45.45,0,0,1,.329.179.393.393,0,0,1,.029.4,57.715,57.715,0,0,1-4.38,5.911q-.771.96-1.618,1.841a.28.28,0,0,0-.077.063,6.808,6.808,0,0,1-1.425,1.2,2.079,2.079,0,0,1-.412.189l-.082,0a1.457,1.457,0,0,1-1.046-.208,1.611,1.611,0,0,1-.659-.848,5.445,5.445,0,0,1-.179-.7.256.256,0,0,0-.189-.2.2.2,0,0,0-.223.1c-.082.121-.165.242-.247.368-.582.877-1.2,1.72-1.861,2.549-.048.044-.1.1-.155.155a5.28,5.28,0,0,1-.557.586,1.867,1.867,0,0,1-.712.4l-.073.01-.1.01a2.083,2.083,0,0,1-1.633-.538,2.8,2.8,0,0,1-.824-1.56,8.572,8.572,0,0,1,.257-3.435,12.715,12.715,0,0,1,1.371-3.2,8.677,8.677,0,0,1,1.836-2.137,5,5,0,0,1,2.578-1.119,4.246,4.246,0,0,1,2.05.228,1.177,1.177,0,0,1,.712.6,1.437,1.437,0,0,1,.107.833.222.222,0,0,0,.053.223.78.78,0,0,1,.228.286c.029.092.053.165.068.223a1.693,1.693,0,0,1,.034.2.665.665,0,0,1,0,.141.418.418,0,0,1-.034.121.6.6,0,0,1-.063.233c-.189.378-.383.732-.581,1.051a1.472,1.472,0,0,0-.17.276c-.068.1-.136.2-.2.31a.349.349,0,0,0-.078.116l-.024.063a9.4,9.4,0,0,0-.446,2.408c0,.174,0,.368.019.586a1.394,1.394,0,0,0,.145.582.479.479,0,0,0,.412.291h.024l.058,0a1.613,1.613,0,0,0,.543-.315l.019-.034a7.708,7.708,0,0,0,.872-.736,49.94,49.94,0,0,0,4.652-5.485.369.369,0,0,1,.048-.087C352.1,560.651,352.521,560.017,352.919,559.367Zm-11.624,6.822.077-.092q1.424-2.028,2.757-4.123a.322.322,0,0,0,0-.233.189.189,0,0,0-.179-.121,3.1,3.1,0,0,0-2.723,1.492,10.326,10.326,0,0,0-1.541,3.033,6.089,6.089,0,0,0-.3,2.486c.271-.329.509-.63.712-.9s.407-.538.62-.809S341.125,566.417,341.295,566.19Z" transform="translate(-142.069 -522.364)" fill="#2e2e2e"/>
      <path id="Path_253" data-name="Path 253" d="M411.426,559.611a.474.474,0,0,1,.165.451.461.461,0,0,1-.271.359.443.443,0,0,1-.48-.068c-1.2-.756-3.3-1.1-6.289-1.018a85.027,85.027,0,0,0-10.151.945q-5.655.829-10.844,1.851c-3.46.688-6.231,1.25-8.319,1.705-.465.106-.872.194-1.231.266q-6.4,1.367-12.748,2.883-4.128.981-8.281,1.934c-.174.034-.339.068-.509.1a21.608,21.608,0,0,1-2.519.45c-.984.083-1.507-.441-1.58-1.551a13.086,13.086,0,0,1,.368-3.779.232.232,0,0,0-.131-.281.251.251,0,0,0-.32.072q-1.6,1.73-3.183,3.566c-.1.121-.223.262-.363.407q-.967,1.149-1.812,2.176c-.145.223-.281.45-.417.669a2.8,2.8,0,0,1-.6.911.821.821,0,0,1-.208.194,1.017,1.017,0,0,1-.412.179l-.024.005-.024.034a1.242,1.242,0,0,1-1.08-.242,1.278,1.278,0,0,1-.47-.979,7.254,7.254,0,0,1,.329-2.166c.029-.1.053-.2.087-.3q.661-2.232,1.507-4.4c.315-.848.62-1.691.916-2.539a.1.1,0,0,0,.019-.087,1.173,1.173,0,0,1,.7-1.066,1.154,1.154,0,0,1,1.342.291,1.58,1.58,0,0,1,.276.518l0,.053,0,.058,0,.058.015.111v.029a3.217,3.217,0,0,1-.14.872.077.077,0,0,1-.024.058c-.189.606-.4,1.192-.63,1.773a.536.536,0,0,1-.034.146c-.242.635-.489,1.269-.732,1.9-.359.93-.717,1.846-1.061,2.757a.659.659,0,0,0,.126-.155c.252-.31.523-.659.824-1.051s.567-.751.819-1.081c.363-.509.741-1.037,1.124-1.565a42.67,42.67,0,0,1,2.961-3.862,1.662,1.662,0,0,0,.184-.184,5.726,5.726,0,0,1,1.686-1.4,1.828,1.828,0,0,1,.247-.082.99.99,0,0,1,.334-.034l.029,0,.063.01.058.01a1.192,1.192,0,0,1,.388.15.623.623,0,0,1,.247.242.491.491,0,0,1,.121.175.6.6,0,0,0,.058.126l0,.058.019.092.019.073a1.856,1.856,0,0,1-.121.751c-.1.354-.218.717-.349,1.1-.034.073-.063.155-.092.238-.1.315-.252.707-.455,1.187-.334.843-.64,1.74-.935,2.665a4.321,4.321,0,0,0-.237,2.185.439.439,0,0,0,.082.131.235.235,0,0,0,.135.077,2.723,2.723,0,0,0,.489.009l.112-.015c.843-.121,1.7-.261,2.553-.421a.1.1,0,0,1,.083-.039q7.13-1.475,14.3-3.043,11.331-2.573,22.652-4.656c.145-.034.305-.073.475-.1q3.867-.676,7.762-1.226a73.246,73.246,0,0,1,7.849-.693,21.9,21.9,0,0,1,2.752.131A6.1,6.1,0,0,1,411.426,559.611Z" transform="translate(-132.03 -524.44)" fill="#2e2e2e"/>
    </g>
    <g id="Group_1390" data-name="Group 1390" transform="translate(295.856 606.042)">
      <path id="Path_254" data-name="Path 254" d="M592.183,562.8l.063.024.058-.01a.5.5,0,0,1,.15,0,.266.266,0,0,1,.165.068c.044.044.116.111.208.2a.873.873,0,0,1,.238.373,1.576,1.576,0,0,1-.194.373,1.27,1.27,0,0,1-.184.213.967.967,0,0,1-.14.092.549.549,0,0,1-.116.034l-.092.015c-.02,0-.029.01-.024.039a.83.83,0,0,1-.233.063q-2.842.625-5.722,1.022c-.877.146-1.754.286-2.626.436-1.8.3-3.566.582-5.32.843q-11.963,1.876-23.849,3.988t-23.529,4.932l-.184.029q-1.657.414-4.356,1.187t-5.049,1.72a7.149,7.149,0,0,0-3.009,1.836l.015.107.015.107a3.658,3.658,0,0,0,1.366.8,18.047,18.047,0,0,0,1.812.562.939.939,0,0,0,.194.049,1.571,1.571,0,0,1,1.013.7.915.915,0,0,1-.16,1.022,2.756,2.756,0,0,1-1.308.732,3.311,3.311,0,0,1-1.643.044,23.889,23.889,0,0,1-3.048-1.075,4.617,4.617,0,0,1-2.161-1.706,2.341,2.341,0,0,1,.945-2.892A14.4,14.4,0,0,1,519.6,576.5q2.522-.945,4.642-1.531,7.232-2.006,14.672-3.45t14.894-2.709q10.444-1.744,21.038-3.319-5.313.436-10.325.877Q484.03,573.91,404.112,587q-41.4,6.686-82.3,15.229-11.687,2.471-23.287,5.179a3.418,3.418,0,0,1-1.623-.053,1.463,1.463,0,0,1-.988-.727.951.951,0,0,1,.315-1.056,2.784,2.784,0,0,1,1.4-.688q35.155-7.268,70.664-13.276t71.2-11.13q47.475-6.9,95.182-12.225,26.884-3.031,53.691-5.262c.32-.019.625-.048.906-.082.882-.078,1.793-.116,2.733-.126A.548.548,0,0,1,592.183,562.8Z" transform="translate(-295.856 -562.785)" fill="#2e2e2e"/>
    </g>
  </g>
</svg>
