<svg xmlns="http://www.w3.org/2000/svg" width="387" height="50" viewBox="0 0 387 50">
  <g id="Group_1157" data-name="Group 1157" transform="translate(-195)">
    <g id="Paypal" transform="translate(-46)">
      <rect id="Rectangle_87" data-name="Rectangle 87" width="178.5" height="50" rx="8" transform="translate(449.5)" fill="#ffc439"/>
      <path id="Path_189" data-name="Path 189" d="M480.16,248H481.7v-3.58h2.088c2.361,0,3.53-1.426,3.53-3.306s-1.159-3.3-3.525-3.3h-3.63Zm1.537-4.882v-3.982h1.929c1.521,0,2.142.825,2.142,1.978a1.864,1.864,0,0,1-2.123,2Zm9.5,5.051a2.385,2.385,0,0,0,2.257-1.213h.06V248h1.452v-5.071c0-2.222-1.75-2.665-2.963-2.665a3.084,3.084,0,0,0-3.152,1.949l1.4.318a1.782,1.782,0,0,1,1.774-1.064,1.27,1.27,0,0,1,1.452,1.368v.034c0,.542-.557.532-1.929.691-1.447.169-2.928.547-2.928,2.282A2.318,2.318,0,0,0,491.2,248.169Zm.323-1.193c-.84,0-1.446-.378-1.446-1.114,0-.795.705-1.079,1.566-1.193a5.8,5.8,0,0,0,1.839-.408v.985A1.792,1.792,0,0,1,491.523,246.976Zm6.142,3.888a2.451,2.451,0,0,0,2.446-1.845l3.157-8.64-1.606-.015-1.934,5.926h-.08l-1.934-5.926h-1.59l2.794,7.735-.184.508a1.2,1.2,0,0,1-1.726.875l-.358,1.218A2.84,2.84,0,0,0,497.665,250.864ZM510.129,248h1.511l1.552-5.513h.114L514.857,248h1.516l2.243-7.636h-1.537l-1.486,5.583h-.075l-1.491-5.583h-1.536l-1.5,5.608h-.074l-1.5-5.608h-1.536Zm9.947,0h1.487v-7.636h-1.487Zm.751-8.815a.888.888,0,1,0-.94-.885A.919.919,0,0,0,520.827,239.185Zm6.35,1.179h-1.566v-1.83h-1.486v1.83h-1.119v1.193h1.119v4.509a1.994,1.994,0,0,0,2.227,2.033,2.836,2.836,0,0,0,.964-.159l-.268-1.228a2.4,2.4,0,0,1-.522.065c-.482,0-.915-.159-.915-1.019v-4.2h1.566Zm3.345,3.1a1.754,1.754,0,0,1,1.83-1.914,1.563,1.563,0,0,1,1.635,1.77V248h1.487v-4.857c0-1.9-1.044-2.879-2.615-2.879a2.236,2.236,0,0,0-2.262,1.343H530.5v-3.789h-1.466V248h1.486Z" transform="translate(0 -218)"/>
      <path id="Path_190" data-name="Path 190" d="M548.09,236.5h-4.433a.614.614,0,0,0-.609.514l-1.793,11.226a.366.366,0,0,0,.365.422h2.117a.615.615,0,0,0,.609-.514l.483-3.028a.614.614,0,0,1,.608-.515h1.4c2.92,0,4.606-1.4,5.046-4.161a3.342,3.342,0,0,0-.565-2.826A4.146,4.146,0,0,0,548.09,236.5Zm.511,4.1c-.242,1.571-1.457,1.571-2.633,1.571H545.3l.47-2.934a.367.367,0,0,1,.365-.307h.306c.8,0,1.556,0,1.946.45A1.443,1.443,0,0,1,548.6,240.6Z" transform="translate(0 -218)" fill="#283b82"/>
      <path id="Path_191" data-name="Path 191" d="M561.342,240.551h-2.123a.369.369,0,0,0-.365.308l-.094.586-.148-.212a3.044,3.044,0,0,0-2.508-.879,4.861,4.861,0,0,0-4.74,4.216,3.922,3.922,0,0,0,.791,3.221,3.346,3.346,0,0,0,2.674,1.066,4.083,4.083,0,0,0,2.939-1.2l-.1.582a.367.367,0,0,0,.365.423h1.912a.614.614,0,0,0,.609-.514l1.147-7.176A.365.365,0,0,0,561.342,240.551Zm-2.959,4.08a2.357,2.357,0,0,1-2.4,2,1.8,1.8,0,0,1-1.426-.565,1.765,1.765,0,0,1-.333-1.473,2.367,2.367,0,0,1,2.379-2.018,1.669,1.669,0,0,1,1.775,2.054Z" transform="translate(0 -218)" fill="#283b82"/>
      <path id="Path_192" data-name="Path 192" d="M572.649,240.551h-2.133a.619.619,0,0,0-.51.267l-2.943,4.28-1.247-4.113a.617.617,0,0,0-.591-.434h-2.1a.366.366,0,0,0-.35.483l2.35,6.81-2.21,3.08a.365.365,0,0,0,.3.576h2.131a.617.617,0,0,0,.506-.261l7.1-10.115A.365.365,0,0,0,572.649,240.551Z" transform="translate(0 -218)" fill="#283b82"/>
      <path id="Path_193" data-name="Path 193" d="M579.713,236.5h-4.434a.613.613,0,0,0-.608.514l-1.793,11.226a.366.366,0,0,0,.364.422h2.275a.43.43,0,0,0,.426-.36l.509-3.182a.612.612,0,0,1,.608-.515h1.4c2.921,0,4.6-1.4,5.046-4.161a3.335,3.335,0,0,0-.566-2.826A4.138,4.138,0,0,0,579.713,236.5Zm.512,4.1c-.242,1.571-1.458,1.571-2.634,1.571h-.668l.47-2.934a.366.366,0,0,1,.364-.307h.307c.8,0,1.556,0,1.946.45A1.447,1.447,0,0,1,580.225,240.6Z" transform="translate(0 -218)" fill="#469bdb"/>
      <path id="Path_194" data-name="Path 194" d="M592.965,240.551h-2.122a.365.365,0,0,0-.364.308l-.094.586-.15-.212a3.039,3.039,0,0,0-2.506-.879,4.859,4.859,0,0,0-4.74,4.216,3.925,3.925,0,0,0,.79,3.221,3.348,3.348,0,0,0,2.674,1.066,4.083,4.083,0,0,0,2.939-1.2l-.1.582a.367.367,0,0,0,.366.423h1.912a.613.613,0,0,0,.608-.514l1.148-7.176A.367.367,0,0,0,592.965,240.551Zm-2.96,4.08a2.356,2.356,0,0,1-2.4,2,1.806,1.806,0,0,1-1.426-.565,1.775,1.775,0,0,1-.333-1.473,2.368,2.368,0,0,1,2.379-2.018,1.669,1.669,0,0,1,1.775,2.054Z" transform="translate(0 -218)" fill="#469bdb"/>
      <path id="Path_195" data-name="Path 195" d="M595.469,236.809l-1.82,11.432a.367.367,0,0,0,.365.422h1.829a.614.614,0,0,0,.609-.514l1.794-11.227a.366.366,0,0,0-.364-.422h-2.049A.37.37,0,0,0,595.469,236.809Z" transform="translate(0 -218)" fill="#469bdb"/>
    </g>
    <g id="Apple_Pay" data-name="Apple Pay" transform="translate(-63)">
      <rect id="Rectangle_85" data-name="Rectangle 85" width="178.5" height="50" rx="8" transform="translate(258)"/>
      <path id="Path_188" data-name="Path 188" d="M331.341,236.525a3.937,3.937,0,0,0,.921-2.437,1.69,1.69,0,0,0-.034-.348,3.87,3.87,0,0,0-2.561,1.325,3.8,3.8,0,0,0-.954,2.358,1.577,1.577,0,0,0,.033.315,1.327,1.327,0,0,0,.236.022A3.412,3.412,0,0,0,331.341,236.525Zm.617,1.426c-1.314,0-2.381.8-3.066.8-.73,0-1.684-.752-2.83-.752-2.167,0-4.368,1.8-4.368,5.177a10.67,10.67,0,0,0,1.819,5.773c.865,1.213,1.617,2.212,2.707,2.212s1.549-.719,2.886-.719c1.359,0,1.662.7,2.852.7s1.966-1.079,2.707-2.145a9.279,9.279,0,0,0,1.19-2.471,3.852,3.852,0,0,1-2.324-3.527,3.935,3.935,0,0,1,1.875-3.313A4.092,4.092,0,0,0,331.958,237.951Zm5.459,13.083h2.9v-5.356h3.571a5.179,5.179,0,0,0,5.514-5.414v-.022a5.172,5.172,0,0,0-5.514-5.413h-6.469Zm5.761-13.835c2.078,0,3.291,1.111,3.291,3.054v.023c0,1.943-1.213,3.066-3.291,3.066h-2.863V237.2Zm10.8,14.038a3.953,3.953,0,0,0,3.594-1.887h.191v1.684h2.762v-8.389c0-2.594-1.774-4.121-4.93-4.121-2.92,0-4.9,1.37-5.166,3.436l-.011.1h2.639l.011-.045c.281-.808,1.112-1.269,2.393-1.269,1.5,0,2.3.674,2.3,1.9V243.7l-3.156.191c-2.987.18-4.661,1.46-4.661,3.65v.022C349.951,249.8,351.647,251.237,353.983,251.237Zm-1.269-3.807v-.023c0-1.011.73-1.583,2.291-1.685l2.763-.179v.988a2.7,2.7,0,0,1-2.931,2.561C353.6,249.092,352.714,248.474,352.714,247.43Zm10.883,7.917c2.718,0,4.122-.977,5.178-4.054l4.4-12.533h-2.942l-2.853,9.59h-.213l-2.864-9.59H361.25l4.391,12.286-.146.561a1.948,1.948,0,0,1-2.133,1.584c-.292,0-.607-.011-.832-.034V255.3C362.867,255.336,363.26,255.347,363.6,255.347Z" transform="translate(0 -218)" fill="#fff"/>
    </g>
  </g>
</svg>
