<svg id="Group_1198" data-name="Group 1198" xmlns="http://www.w3.org/2000/svg" width="33" height="23" viewBox="0 0 33 23">
  <rect id="Rectangle_189" data-name="Rectangle 189" width="33" height="23" rx="3.5" fill="#2e2e2e"/>
  <path id="Path_188" data-name="Path 188" d="M326.391,235.1a1.917,1.917,0,0,0,.448-1.186.823.823,0,0,0-.017-.169,1.884,1.884,0,0,0-1.247.645,1.848,1.848,0,0,0-.464,1.148.768.768,0,0,0,.016.153.646.646,0,0,0,.115.011A1.661,1.661,0,0,0,326.391,235.1Zm.3.694c-.64,0-1.159.388-1.493.388-.355,0-.82-.366-1.378-.366a2.268,2.268,0,0,0-2.127,2.521,5.2,5.2,0,0,0,.886,2.811c.421.591.787,1.077,1.318,1.077s.754-.35,1.405-.35.809.339,1.389.339.957-.525,1.318-1.044a4.518,4.518,0,0,0,.579-1.2,1.875,1.875,0,0,1-1.132-1.717,1.916,1.916,0,0,1,.913-1.613A1.992,1.992,0,0,0,326.691,235.79Zm2.658,6.37h1.411v-2.608H332.5a2.521,2.521,0,0,0,2.685-2.636v-.011a2.518,2.518,0,0,0-2.685-2.635h-3.15Zm2.8-6.736a1.411,1.411,0,0,1,1.6,1.487v.011a1.415,1.415,0,0,1-1.6,1.493H330.76v-2.991Zm5.261,6.835a1.924,1.924,0,0,0,1.75-.919h.093v.82H340.6v-4.084c0-1.263-.864-2.006-2.4-2.006-1.422,0-2.384.667-2.515,1.673l-.005.049h1.285l.005-.022c.137-.393.541-.618,1.165-.618.732,0,1.121.328,1.121.924v.514l-1.537.093c-1.454.088-2.269.711-2.269,1.777v.011A1.79,1.79,0,0,0,337.414,242.259Zm-.618-1.854v-.011c0-.492.355-.771,1.115-.82l1.345-.087v.481a1.313,1.313,0,0,1-1.427,1.247C337.229,241.214,336.8,240.914,336.8,240.405Zm5.3,3.855c1.323,0,2.007-.476,2.521-1.974l2.143-6.1h-1.432l-1.389,4.669h-.1l-1.394-4.669h-1.487l2.138,5.982-.071.273a.949.949,0,0,1-1.038.771c-.142,0-.3-.005-.405-.017v1.044C341.74,244.254,341.931,244.26,342.1,244.26Z" transform="translate(-317.727 -227.5)" fill="#fff"/>
</svg>
