<?xml version="1.0" encoding="UTF-8"?><svg id="Layer_2" xmlns="http://www.w3.org/2000/svg" viewBox="0 0 157.76 212.61"><defs><style>.cls-1,.cls-2{fill:#ebe6d7;}.cls-3{fill:#616432;}.cls-2{stroke:#616432;stroke-miterlimit:10;stroke-width:1.5px;}</style></defs><g id="Layer_1-2"><g><rect class="cls-1" x="0" y="0" width="157.76" height="212.61" rx="78.88" ry="78.88"/><rect class="cls-2" x="32.57" y="37.18" width="93.6" height="135.45" rx="46.8" ry="46.8"/><g><path class="cls-3" d="M90.5,79c5.54,.94,9.59,5.73,9.59,11.35v38.28c-.01,5.75-4.89,9.47-10.3,10.59,2.48-.43,15.8-2.75,18.36-10.32,.57-1.68,.86-3.44,.86-5.21v-40.75l8.49-3.93h-26.99Z"/><path class="cls-3" d="M58.65,128.63v-38.28c-.02-5.62,4.04-10.41,9.58-11.35h-26.99l8.49,3.93v40.75c0,1.77,.29,3.53,.86,5.21,2.56,7.57,15.88,9.89,18.36,10.32-5.41-1.12-10.29-4.84-10.29-10.59Z"/><path class="cls-3" d="M67.08,66.48l8.48,3.93v66.01c0,5.8-4.94,9.52-10.4,10.61,2.12-.36,15.87-2.63,18.48-10.34,.57-1.68,.86-3.44,.86-5.21V62.78s-17.41,3.71-17.41,3.71Z"/></g><g><path class="cls-3" d="M12.31,141.23c-1.65,.3-1.93,.56-2.01,1.42l-.34,.06-1.11-6.16,.34-.06c.38,.79,.73,.93,2.38,.63l14.89-2.69c1.66-.3,1.93-.56,2.01-1.42l.34-.06,1.11,6.16-.34,.06c-.38-.79-.73-.93-2.38-.63l-14.9,2.69Z"/><path class="cls-3" d="M8.51,121.08c.25,.81,.57,1.03,2.25,1.01l17.71-.29,.04,2.38-17.67,6.78,15.19-.25c1.68-.03,2-.24,2.22-1.08h.35s.04,2.66,.04,2.66h-.35c-.25-.83-.57-1.03-2.25-1l-16.5,.27c-.55,.36-.71,.71-.85,1.12h-.35s-.09-5.53-.09-5.53l12.22-4.64-9.71,.16c-1.68,.03-2,.24-2.22,1.08h-.35s-.04-2.66-.04-2.66h.35Z"/><path class="cls-3" d="M15.16,108.58v.58c-5.71,.87-6.32,1.36-6.32,2.96v.29H25.98c1.68,0,2-.2,2.23-1.04h.35v6.27h-.35c-.23-.84-.55-1.04-2.23-1.04H8.84v.32c0,1.6,.61,2.09,6.32,2.93v.58l-6.9-.58v-10.67l6.9-.58Z"/><path class="cls-3" d="M21.54,97.75l7.02,.58v9.43h-.35c-.23-.84-.55-1.04-2.23-1.04H10.84c-1.68,0-2,.2-2.23,1.04h-.35v-9.22l6.9-.58v.58c-5.71,.61-6.32,1.04-6.32,2.81v1.19h8.59v-.78c0-1.31-.29-1.45-3.02-1.31v-.58l6.9-.49v.61c-3.02,.29-3.31,.38-3.31,1.86v.7h9.98v-1.36c0-1.51-.61-2.26-6.44-2.84v-.58Z"/><path class="cls-3" d="M25.34,83.42c2.58,.12,3.51,.44,3.51,2.64,0,2.49-1.65,3.05-6,3.34-3.89,.26-5.31,.03-5.31,1.16,0,.29,0,.49-.09,.87h8.53c1.68,0,2-.2,2.23-1.04h.35v6.27h-.35c-.23-.84-.55-1.04-2.23-1.04H10.84c-1.68,0-2,.2-2.23,1.04h-.35v-1.42c-.03-2.55-.29-3.71-.29-5.08,0-2.44,1.01-5.11,4.55-5.11,2.73,0,4.21,1.68,4.76,3.63,.44-2.18,1.74-3.13,5.6-3.39,4-.29,4.82-.26,4.82-.73,0-.29-.38-.44-2.41-.55l.06-.58Zm-8.5,8.01c.09-.2,.12-.35,.12-.64,0-1.04-1.74-1.57-4.41-1.57-3.02,0-4,.7-4,1.54,0,.29,.06,.46,.14,.67h8.15Z"/><path class="cls-3" d="M10.8,81.1c-1.68-.07-2.01,.12-2.27,.96h-.35s.25-6.27,.25-6.27h.35c.2,.86,.51,1.08,2.19,1.15l15.13,.6c1.68,.07,2.01-.12,2.27-.96h.35s-.25,6.27-.25,6.27h-.35c-.2-.86-.51-1.08-2.19-1.15l-15.13-.6Z"/><path class="cls-3" d="M18.54,74.16c-7.84-1.74-9.64-4.78-8.88-8.21,.75-3.4,3.63-5.4,11.51-3.66,7.87,1.74,9.64,4.75,8.88,8.18s-3.67,5.43-11.51,3.69Zm1.6-7.22c-7.53-1.67-9.62-2.16-9.91-.86-.29,1.3,1.84,1.77,9.34,3.44,7.53,1.67,9.63,2.13,9.92,.83,.29-1.3-1.81-1.74-9.35-3.41Z"/><path class="cls-3" d="M34.02,51.31c2.26,1.25,2.95,1.95,1.97,3.93-1.11,2.23-2.84,1.99-6.86,.31-3.6-1.5-4.77-2.34-5.27-1.32-.13,.26-.22,.44-.46,.74l7.64,3.8c1.51,.75,1.88,.71,2.46,.06l.31,.15-2.79,5.61-.31-.16c.17-.86-.03-1.18-1.54-1.93l-13.56-6.74c-1.51-.75-1.88-.71-2.46-.06l-.31-.15,.63-1.27c1.11-2.3,1.39-3.45,2-4.67,1.08-2.18,3.18-4.12,6.35-2.54,2.44,1.21,3.02,3.38,2.65,5.36,1.36-1.75,2.95-2.03,6.52-.55,3.71,1.52,4.43,1.91,4.63,1.49,.13-.26-.14-.56-1.91-1.56l.31-.49Zm-11.17,3.39c.17-.14,.26-.26,.39-.52,.46-.94-.86-2.18-3.25-3.36-2.7-1.34-3.89-1.16-4.27-.4-.13,.26-.15,.44-.17,.66l7.3,3.63Z"/><path class="cls-3" d="M39.1,49.87l-.25-.25c.43-.76,.35-1.13-.84-2.32l-10.68-10.73c-1.19-1.19-1.56-1.27-2.32-.85l-.25-.25,1.01-1c1.23-1.27,2.3-2.7,3.1-3.5,2.1-2.09,5.75-3.27,11.89,2.9s4.94,9.81,2.78,11.96c-.99,.98-2.22,1.84-3.45,3.03l-1.01,1Zm3.37-4.01c.27-.1,.45-.2,.64-.39,.7-.7,.52-2.07-5.66-8.28-6.24-6.27-7.53-6.42-8.27-5.68-.14,.14-.31,.39-.37,.61l13.67,13.73Z"/><path class="cls-3" d="M52.72,29.89l3.28,6.23-7.95,5.06-.19-.29c.58-.65,.58-1.03-.32-2.44l-8.12-12.78c-.9-1.42-1.25-1.58-2.08-1.32l-.19-.29,7.78-4.95,4.19,5.51-.49,.31c-3.58-4.5-4.27-4.78-5.77-3.83l-1,.64,4.61,7.24,.66-.42c1.1-.7,1.07-1.02-.52-3.25l.49-.31,4.12,5.56-.51,.33c-1.86-2.39-2.09-2.59-3.34-1.79l-.59,.37,5.35,8.42,1.15-.73c1.27-.81,1.58-1.73-1.06-6.96l.49-.31Z"/><path class="cls-3" d="M54.34,29.22l.54-.21c2.74,4.82,4.11,5.62,5.19,5.2,.92-.36,.93-1.29,.41-2.65-.86-2.22-2.81-4.11-4.84-5.99-1.88-1.73-4.39-3.71-5.19-5.76-.88-2.27,.5-3.83,2.78-4.71,1.54-.6,2.67-.73,3.75-1.15l3.04,6.23-.57,.22c-2.61-4.8-3.74-5.64-4.93-5.18-.7,.27-.94,.95-.58,1.87,.56,1.43,2.38,3,4,4.54,1.99,1.84,4.86,4.18,5.88,6.83,1.25,3.22,.12,4.87-2.56,5.91-1.41,.54-2.48,.65-3.84,1.18l-3.08-6.33Z"/><path class="cls-3" d="M62.84,14.93c-.36-1.64-.62-1.91-1.49-1.96l-.07-.34,6.12-1.32,.07,.34c-.77,.4-.9,.76-.55,2.4l3.19,14.8c.35,1.64,.62,1.91,1.49,1.96l.07,.34-6.12,1.32-.07-.34c.77-.4,.9-.76,.55-2.4l-3.19-14.8Z"/><path class="cls-3" d="M78.84,10.08c1.3-.03,2.15,.24,3.31,.21l.74,6.89h-.52c-1.32-5.67-2.07-6.55-3.38-6.52-1.86,.04-2.9,2.68-2.73,9.49,.19,8,.82,9.99,2.53,9.95,.46-.01,.69-.07,1.01-.17l-.12-4.96c-.09-3.68-.46-4.57-2.03-4.71v-.58s6.84,.27,6.84,.27v.58c-1.09,.03-1.02,2.9-.99,4.35l.13,5.68c-2.06,.05-3.07,.36-4.89,.41-4,.1-7.05-2.65-7.23-10.21-.18-7.57,3.26-10.58,7.32-10.67Z"/><path class="cls-3" d="M99.86,13.47c-.84,.06-1.13,.33-1.48,1.97l-3.64,17.34-2.33-.49-2.71-18.73-3.12,14.87c-.35,1.65-.21,2,.56,2.4l-.07,.34-2.61-.55,.07-.34c.87-.05,1.13-.32,1.48-1.97l3.39-16.15c-.23-.61-.53-.85-.9-1.08l.07-.34,5.42,1.14,1.82,12.94,1.99-9.51c.34-1.65,.21-2-.56-2.4l.07-.34,2.61,.55-.07,.34Z"/><path class="cls-3" d="M106.67,38.56c.11-.31,.23-.57,.32-.85-1.16,.2-2.33,.03-3.51-.65-2.44-1.4-3.62-3.83-1.51-7.5,2.53-4.4,6.48-4.57,8.59-4.39,.36-2.31,.48-4.61,.32-6.95l.29-.5,7.16,4.13-2.94,6.27-.5-.29c2.33-5.25,2.25-6,.72-6.88l-4.12-2.38c1.29,4.73,1.49,9.33,.36,15.3,.98-.94,1.98-2.04,2.99-3.33l.45,.39c-1.23,1.5-2.46,2.87-3.64,3.99-.38,1.76-.88,3.61-1.48,5.64l-3.49-2.01Zm.6-1.63c1.41-3.84,2.54-7.44,3.16-11-1.56,1.38-3.13,3.22-4.4,5.43-1.38,2.39-2.12,4.6-.69,5.43,.53,.3,1.18,.34,1.93,.14Z"/><path class="cls-3" d="M131.41,33.88l-6.71,6.2,.51,.55c.92,1,1.24,.91,3.14-1.05l.39,.43-4.74,5.05-.41-.45c2.02-2.26,2.17-2.52,1.13-3.65l-.45-.49-5.45,5.04c-1.24,1.14-1.33,1.51-.93,2.28l-.26,.24-4.25-4.6,.26-.24c.74,.46,1.11,.39,2.35-.75l11.12-10.27c1.24-1.14,1.33-1.51,.93-2.28l.26-.24,6.42,6.94-4.76,5.19-.39-.43c3.71-4.57,3.8-5.37,2.52-6.76l-.67-.72Z"/><path class="cls-3" d="M136.07,42.7c1.45-.85,1.62-1.19,1.4-2.03l.3-.18,3.17,5.4-.3,.18c-.63-.61-1-.62-2.45,.23l-10.23,6c-2.83,1.66-3.02,2.98-2.3,4.21,.7,1.2,1.91,1.6,4.34,.18l10.63-6.24c1.45-.85,1.62-1.19,1.4-2.03l.3-.18,1.35,2.3-.3,.18c-.63-.61-1-.62-2.45,.23l-10.78,6.33c-3.05,1.79-5.34,1.79-6.84-.76-1.5-2.55-1.63-5.36,2.64-7.87l10.13-5.95Z"/><path class="cls-3" d="M133.08,72.44c-2.5,.63-3.49,.6-4.12-1.52-.72-2.39,.71-3.39,4.79-4.92,3.65-1.37,5.07-1.56,4.75-2.64-.08-.28-.14-.47-.17-.86l-8.17,2.46c-1.61,.48-1.86,.77-1.84,1.64l-.33,.1-1.81-6,.33-.1c.46,.74,.83,.84,2.44,.36l14.5-4.36c1.61-.49,1.86-.77,1.84-1.64l.33-.1,.41,1.36c.76,2.44,1.35,3.47,1.74,4.78,.7,2.33,.5,5.18-2.89,6.2-2.61,.79-4.51-.4-5.6-2.1,.21,2.21-.76,3.5-4.38,4.86-3.75,1.43-4.54,1.64-4.4,2.08,.08,.28,.49,.31,2.46-.17l.11,.57Zm5.83-10.11c-.03,.22-.01,.37,.07,.64,.3,1,2.12,1,4.67,.23,2.89-.87,3.63-1.82,3.39-2.63-.08-.28-.19-.43-.33-.6l-7.8,2.35Z"/><path class="cls-3" d="M150.35,83.52c-.28-.8-.61-1.01-2.29-.92l-17.69,1.01-.14-2.37,17.38-7.49-15.17,.86c-1.68,.1-1.99,.32-2.17,1.17l-.35,.02-.15-2.66,.35-.02c.28,.83,.61,1.01,2.29,.92l16.47-.94c.53-.38,.68-.74,.81-1.15l.35-.02,.31,5.53-12.02,5.13,9.7-.55c1.68-.1,1.99-.32,2.17-1.17l.35-.02,.15,2.66-.35,.02Z"/><path class="cls-3" d="M147.89,86.05c1.68,0,2-.2,2.23-1.04h.35v6.27h-.35c-.23-.84-.55-1.04-2.23-1.04h-15.14c-1.68,0-2,.2-2.23,1.04h-.35v-6.27h.35c.23,.84,.55,1.04,2.23,1.04h15.14Z"/><path class="cls-3" d="M143.57,103.93v-.58c5.71-.87,6.32-1.36,6.32-2.96v-.29h-17.14c-1.68,0-2,.2-2.23,1.04h-.35v-6.27h.35c.23,.84,.55,1.04,2.23,1.04h17.14v-.32c0-1.6-.61-2.09-6.32-2.93v-.58l6.9,.58v10.67l-6.9,.58Z"/><path class="cls-3" d="M147.89,106.01c1.68,0,2-.2,2.23-1.04h.35v6.27h-.35c-.23-.84-.55-1.04-2.23-1.04h-11.86c-3.28,0-4.12,1.04-4.12,2.47s.84,2.35,3.66,2.35h12.33c1.68,0,2-.2,2.23-1.04h.35v2.67h-.35c-.23-.84-.55-1.04-2.23-1.04h-12.5c-3.54,0-5.51-1.16-5.51-4.12s1.31-5.45,6.27-5.45h11.75Z"/><path class="cls-3" d="M133.39,130.88c-2.58-.12-3.51-.43-3.51-2.64,0-2.49,1.65-3.05,6-3.34,3.89-.26,5.31-.03,5.31-1.16,0-.29,0-.49,.09-.87h-8.53c-1.68,0-2,.2-2.23,1.04h-.35v-6.27h.35c.23,.84,.55,1.04,2.23,1.04h15.14c1.68,0,2-.2,2.23-1.04h.35v1.42c.03,2.55,.29,3.71,.29,5.08,0,2.44-1.01,5.11-4.55,5.11-2.73,0-4.21-1.68-4.76-3.63-.44,2.18-1.74,3.13-5.6,3.39-4,.29-4.82,.26-4.82,.73,0,.29,.38,.43,2.41,.55l-.06,.58Zm8.5-8.01c-.09,.2-.12,.35-.12,.64,0,1.04,1.74,1.57,4.41,1.57,3.02,0,4-.7,4-1.54,0-.29-.06-.46-.14-.67h-8.15Z"/><path class="cls-3" d="M135.46,141.9l-6.82-1.77,1.61-9.29,.34,.06c.09,.87,.37,1.12,2.02,1.41l14.92,2.58c1.66,.29,2.01,.14,2.38-.65l.34,.06-1.57,9.09-6.9-.61,.1-.57c5.73,.37,6.41,.05,6.71-1.69l.2-1.17-8.46-1.46-.13,.77c-.22,1.29,.04,1.48,2.75,1.8l-.1,.57-6.89-.69,.1-.6c3.02,.23,3.32,.19,3.57-1.27l.12-.69-9.83-1.7-.23,1.34c-.26,1.49,.21,2.33,5.86,3.9l-.1,.57Z"/></g><g><polygon class="cls-3" points="139.34 144.91 136.23 154.29 136.6 156.26 137.82 154.68 139.34 144.91"/><g><polygon class="cls-3" points="132.99 146.3 134.17 153.59 135.1 154.7 135.37 153.18 132.99 146.3"/><polygon class="cls-3" points="144.36 149.05 139.98 155 138.64 155.56 139.1 154.09 144.36 149.05"/></g></g><g><polygon class="cls-3" points="17.74 144.91 20.85 154.29 20.48 156.26 19.26 154.68 17.74 144.91"/><g><polygon class="cls-3" points="24.09 146.3 22.92 153.59 21.99 154.7 21.71 153.18 24.09 146.3"/><polygon class="cls-3" points="12.72 149.05 17.1 155 18.44 155.56 17.98 154.09 12.72 149.05"/></g></g><g><path class="cls-3" d="M38.51,165.66l-3.74,4.07,1.53-6.77-.79-1.1-13.32,9.58-.47,2.07-3.61-5.02,2.11,.21,13.32-9.58-.79-1.1-6.92-.72,5.04-2.25,7.64,10.62Z"/><path class="cls-3" d="M36.48,185.91v2.12s-4.65-4.07-4.65-4.07l2.1-.27,5.1-5.83c.86-.98,.93-2.53-.02-3.37-.53-.46-1.32-.67-2.23-.57l-6.07,6.95v2.12s-4.65-4.07-4.65-4.07l2.1-.27,7.24-8.28c2.1-2.41,4.77-3.05,6.9-1.18,1.64,1.44,1.66,3.24,.6,4.46-.48,.55-1.34,.86-2.19,.81,.27,.17,.5,.33,.72,.52,1.62,1.42,1.51,3.57,.18,5.09l-5.11,5.85Zm6.26-12.42c.86-.98,.88-2.47,.06-3.19-1.1-.96-2.79-.09-4.02,1.32l-1.86,2.13c1.1-.07,1.95,.02,2.91,.3,1.28,.39,2.24,.2,2.91-.57Z"/><path class="cls-3" d="M42.15,184.04c1.75-3.25,5.79-4.44,9.02-2.7,1.99,1.07,3.3,3.08,3.48,5.39l-4.44-2.39c2.78,2.18,3.82,4.86,2.49,7.33-1.17,2.17-4.24,3.27-7.72,1.39-3.36-1.81-4.56-5.79-2.82-9.02Zm5.43,8.71c1.88,1.01,4.09,.14,5.03-1.6,1.41-2.61-.81-5.96-4.13-7.75l-2.08-1.12c-2.31,3.51-2.12,8.69,1.18,10.47Zm-1.06-10.64l4.74,2.55c.27-1.39-.25-2.88-1.44-3.52-1.28-.69-2.41-.29-3.3,.97Z"/><path class="cls-3" d="M60.87,197.69l2.79-14.76-1.08-1.82,11.14,2.1-.65,3.45-5.84-4.36-1.27,6.72,6.44,1.19-.65,3.45-5.85-4.33-1.93,10.24,8.82-1.59-.65,3.45-12.93-2.44,1.67-1.3Zm4.84-17.63l-.08-.15,6.43-2.12,.67,2.21-7.02,.05Z"/><path class="cls-3" d="M80.99,201.48c-.34,.12-.68,.16-.99,.15-3.27-.09-4.65-2.03-4.56-5.22l.21-7.8-1.61-.04,5.08-3.24-.09,3.17,2.29,.06v.21s-2.29-.06-2.29-.06l-.25,9.02c-.06,2.16,.47,3.71,2.21,3.65v.1Z"/><path class="cls-3" d="M84.07,199.76l-.77-8.89-1.48-.81,4.63-1.97,.98,11.37,1.54,1.46-6.17,.53,1.26-1.7Zm-1.55-14.33c-.09-1.06,.69-1.99,1.75-2.08,1.06-.09,1.99,.69,2.08,1.75,.09,1.06-.69,1.99-1.75,2.08-1.06,.09-1.99-.69-2.08-1.75Z"/><path class="cls-3" d="M89.87,194.51c-.92-3.58,1.23-7.19,4.78-8.11,2.19-.57,4.52,.02,6.21,1.59l-4.88,1.26c3.52-.29,6.11,.97,6.81,3.69,.62,2.39-.89,5.28-4.72,6.27-3.7,.96-7.28-1.16-8.2-4.71Zm1.9-4.38l5.21-1.35c-.74-1.21-2.14-1.95-3.45-1.61-1.41,.36-1.97,1.42-1.76,2.95Zm8.01,7.09c2.06-.53,3.09-2.68,2.6-4.59-.74-2.87-4.64-3.82-8.29-2.88l-2.29,.59c.69,4.14,4.36,7.82,7.98,6.88Z"/><path class="cls-3" d="M117.34,189.27l1.98,.76-5.49,2.86,.51-2.05-3.58-6.87c-.61-1.18-2.01-1.62-3.03-1.09-.62,.32-1.11,.96-1.35,1.85l4.2,8.07,1.98,.76-5.49,2.86,.51-2.05-4.02-7.72-1.68-.18,3.43-3.78,.92,1.78c.55-1.81,1.51-3.13,2.73-3.77,1.82-.95,3.82-.14,4.78,1.7l3.59,6.89Z"/><path class="cls-3" d="M130.25,178.98l2.1,.29-4.69,4.03,.03-2.12-5.05-5.88c-.86-1.01-2.33-1.12-3.2-.37-.53,.46-.86,1.19-.9,2.11l5.93,6.9,2.1,.29-4.69,4.04,.03-2.12-5.68-6.6-1.67,.21,2.47-4.46,1.31,1.52c.12-1.89,.75-3.39,1.8-4.29,1.56-1.34,3.69-1.01,5.05,.56l5.07,5.89Z"/><path class="cls-3" d="M129.19,173.12c-2.97-2.2-3.57-6.36-1.39-9.31,1.35-1.82,3.52-2.83,5.83-2.67l-3,4.05c2.55-2.44,5.36-3.08,7.61-1.41,1.98,1.47,2.63,4.66,.28,7.84-2.27,3.07-6.38,3.68-9.33,1.5Zm-1.28-4.6l3.2-4.32c-1.33-.47-2.89-.17-3.69,.92-.87,1.17-.64,2.34,.49,3.4Zm10.68,.47c1.27-1.71,.72-4.03-.87-5.2-2.38-1.76-6.01-.05-8.25,2.98l-1.41,1.9c3.15,2.78,8.3,3.33,10.53,.33Z"/></g></g></g></svg>