<?xml version="1.0" encoding="UTF-8"?><svg id="Layer_2" xmlns="http://www.w3.org/2000/svg" viewBox="0 0 159.75 176.48"><defs><style>.cls-1{fill:#ebe6d7;}</style></defs><g id="Layer_1-2"><g><path class="cls-1" d="M103.2,33.99c11.6,1.96,20.1,12,20.08,23.77l-.03,80.19c0,12.05-10.22,19.83-21.55,22.18,5.19-.89,33.1-5.76,38.46-21.62,1.19-3.52,1.8-7.21,1.8-10.92V42.22l17.78-8.23h-56.54Z"/><path class="cls-1" d="M36.49,137.94l-.03-80.19c-.01-11.76,8.48-21.81,20.08-23.77H0l17.78,8.23V127.58c0,3.71,.6,7.4,1.8,10.92,5.35,15.86,33.27,20.73,38.46,21.62-11.34-2.35-21.55-10.13-21.55-22.18Z"/><path class="cls-1" d="M54.15,7.77l17.77,8.23V154.26c0,12.14-10.35,19.94-21.79,22.22,4.45-.76,33.25-5.51,38.71-21.66,1.19-3.52,1.79-7.21,1.79-10.92l-.03-143.91L54.15,7.77Z"/></g></g></svg>