<?xml version="1.0" encoding="UTF-8"?><svg id="Layer_2" xmlns="http://www.w3.org/2000/svg" viewBox="0 0 100.94 111.51"><defs><style>.cls-1{fill:#2e2e2e;}</style></defs><g id="Layer_1-2"><g><path class="cls-1" d="M65.21,21.47c7.33,1.24,12.7,7.58,12.69,15.02l-.02,50.66c0,7.62-6.46,12.53-13.62,14.02,3.28-.56,20.92-3.64,24.3-13.66,.75-2.22,1.14-4.56,1.14-6.9V26.68l11.24-5.2h-35.73Z"/><path class="cls-1" d="M23.05,87.16l-.02-50.66c0-7.43,5.36-13.78,12.69-15.02H0l11.24,5.2v53.94c0,2.34,.38,4.68,1.14,6.9,3.38,10.02,21.02,13.09,24.3,13.66-7.16-1.48-13.62-6.4-13.62-14.02Z"/><path class="cls-1" d="M34.21,4.91l11.23,5.2V97.47c0,7.67-6.54,12.6-13.77,14.04,2.81-.48,21.01-3.48,24.46-13.68,.75-2.22,1.13-4.55,1.13-6.9l-.02-90.93-23.03,4.91Z"/></g></g></svg>