<svg id="Group_1198" data-name="Group 1198" xmlns="http://www.w3.org/2000/svg" width="33" height="23" viewBox="0 0 33 23">
  <rect id="Rectangle_189" data-name="Rectangle 189" width="33" height="23" rx="3.5" fill="#fff"/>
  <path id="Path_277" data-name="Path 277" d="M14.613,18.448,14.834,17l-.492-.012H11.994L13.626,6.294a.143.143,0,0,1,.045-.084.131.131,0,0,1,.087-.033h3.959a3.45,3.45,0,0,1,2.695.841,1.94,1.94,0,0,1,.432.836,3.122,3.122,0,0,1,0,1.154l0,.033v.295l.222.13a1.567,1.567,0,0,1,.449.354,1.678,1.678,0,0,1,.365.845,3.694,3.694,0,0,1-.052,1.227,4.41,4.41,0,0,1-.486,1.389,2.821,2.821,0,0,1-.77.872,3.076,3.076,0,0,1-1.037.484,5.018,5.018,0,0,1-1.3.155h-.308a.916.916,0,0,0-.6.229.972.972,0,0,0-.314.579l-.023.13-.39,2.554-.018.094a.081.081,0,0,1-.025.055.063.063,0,0,1-.04.015h-1.9" transform="translate(-0.5 -0.5)" fill="#28356a" fill-rule="evenodd"/>
  <path id="Path_278" data-name="Path 278" d="M21.274,9.075c-.012.078-.025.158-.04.24-.522,2.771-2.308,3.728-4.59,3.728H15.483a.57.57,0,0,0-.557.494l-.763,5a.3.3,0,0,0,.293.355h2.06a.5.5,0,0,0,.49-.432l.02-.108.388-2.544.025-.139a.5.5,0,0,1,.49-.433h.308a3.657,3.657,0,0,0,4.015-3.261,2.852,2.852,0,0,0-.413-2.453,1.976,1.976,0,0,0-.564-.449" transform="translate(-0.5 -0.5)" fill="#298fc2" fill-rule="evenodd"/>
  <path id="Path_279" data-name="Path 279" d="M20.729,8.85q-.12-.036-.247-.065t-.261-.051A6.253,6.253,0,0,0,19.2,8.656h-3.1a.479.479,0,0,0-.214.05.51.51,0,0,0-.275.383l-.66,4.321-.019.126a.57.57,0,0,1,.557-.494h1.162c2.281,0,4.068-.958,4.59-3.728.016-.082.029-.162.04-.24a2.729,2.729,0,0,0-.429-.187l-.117-.038" transform="translate(-0.5 -0.5)" fill="#22284f" fill-rule="evenodd"/>
  <path id="Path_280" data-name="Path 280" d="M15.6,9.089a.508.508,0,0,1,.275-.382.479.479,0,0,1,.214-.05h3.1a6.25,6.25,0,0,1,1.024.077c.09.015.176.032.261.051s.167.041.247.065l.117.038a2.78,2.78,0,0,1,.429.187,2.681,2.681,0,0,0-.537-2.352,3.854,3.854,0,0,0-3.02-.992H13.759a.572.572,0,0,0-.559.494l-1.649,10.8a.348.348,0,0,0,.335.406h2.444L15.6,9.089" transform="translate(-0.5 -0.5)" fill="#28356a" fill-rule="evenodd"/>
</svg>
