<svg id="Group_1196" data-name="Group 1196" xmlns="http://www.w3.org/2000/svg" width="33" height="23" viewBox="0 0 33 23">
  <rect id="Rectangle_188" data-name="Rectangle 188" width="33" height="23" rx="3.5" fill="#fff"/>
  <path id="Path_276" data-name="Path 276" d="M18.268,8.142l-1.727.382V7.082l1.727-.374Zm3.592.8a1.919,1.919,0,0,0-1.349.551l-.089-.438H18.908v8.239l1.72-.375.007-2a1.908,1.908,0,0,0,1.218.445c1.232,0,2.353-1.018,2.353-3.257C24.2,10.057,23.064,8.94,21.86,8.94Zm-.413,4.869a1.016,1.016,0,0,1-.812-.332l-.007-2.622a1.012,1.012,0,0,1,.819-.346c.626,0,1.06.721,1.06,1.646C22.507,13.1,22.08,13.809,21.447,13.809Zm8.181-1.632c0-1.809-.853-3.236-2.484-3.236s-2.628,1.427-2.628,3.222c0,2.127,1.17,3.2,2.849,3.2a3.756,3.756,0,0,0,1.906-.459V13.491a3.574,3.574,0,0,1-1.686.389c-.667,0-1.259-.24-1.335-1.074h3.365c0-.039,0-.127.005-.229h0C29.624,12.438,29.629,12.274,29.629,12.177Zm-3.4-.671c0-.8.475-1.131.908-1.131s.867.332.867,1.131ZM16.541,9.061h1.727v6.183H16.541Zm-1.961,0,.11.523a1.152,1.152,0,0,1,1.431-.523v1.625a1.192,1.192,0,0,0-1.307.367v4.19h-1.72V9.061ZM11.25,7.527l-1.679.367-.007,5.66a1.752,1.752,0,0,0,1.782,1.816,2.6,2.6,0,0,0,1.2-.233V13.7c-.22.092-1.307.417-1.307-.629V10.566H12.55V9.061H11.243ZM7.183,10.474c-.365,0-.585.106-.585.382,0,.3.379.433.849.6.766.268,1.775.62,1.779,1.925,0,1.265-.984,1.993-2.415,1.993a4.662,4.662,0,0,1-1.879-.4V13.286a4.2,4.2,0,0,0,1.879.565c.385,0,.661-.106.661-.431s-.411-.486-.907-.67c-.755-.28-1.708-.633-1.708-1.811,0-1.251.929-2,2.326-2a4.433,4.433,0,0,1,1.706.325v1.661A3.758,3.758,0,0,0,7.183,10.474Z" transform="translate(-0.5 -0.5)" fill="#6461fc" fill-rule="evenodd"/>
</svg>
