<svg id="Group_1191" data-name="Group 1191" xmlns="http://www.w3.org/2000/svg" width="75" height="23" viewBox="0 0 75 23">
  <rect id="Rectangle_186" data-name="Rectangle 186" width="33" height="23" rx="3.5" fill="#fff"/>
  <path id="Path_272" data-name="Path 272" d="M17.179,16.83A6.8,6.8,0,0,1,6,11.73a6.8,6.8,0,0,1,11.179-5.1,6.8,6.8,0,0,1,11.179,5.1,6.8,6.8,0,0,1-11.179,5.1Z" transform="translate(-0.5 -0.5)" fill="#ed0006" fill-rule="evenodd"/>
  <path id="Path_273" data-name="Path 273" d="M17.18,16.83a6.649,6.649,0,0,0,0-10.2,6.8,6.8,0,0,1,11.179,5.1,6.8,6.8,0,0,1-11.179,5.1Z" transform="translate(-0.5 -0.5)" fill="#f9a000" fill-rule="evenodd"/>
  <path id="Path_274" data-name="Path 274" d="M17.179,16.83a6.649,6.649,0,0,0,0-10.2,6.649,6.649,0,0,0,0,10.2Z" transform="translate(-0.5 -0.5)" fill="#ff5e00" fill-rule="evenodd"/>
  <rect id="Rectangle_187" data-name="Rectangle 187" width="33" height="23" rx="3.5" transform="translate(42)" fill="#fff"/>
  <path id="Path_275" data-name="Path 275" d="M52.751,15.858h-2.06L49.147,9.792a.977.977,0,0,0-.458-.642A6.573,6.573,0,0,0,46.8,8.509V8.275h3.318a.873.873,0,0,1,.859.758l.8,4.375,2.059-5.134h2Zm4.234,0H55.04l1.6-7.583h1.945ZM61.1,10.376a.759.759,0,0,1,.8-.642,3.535,3.535,0,0,1,1.888.35l.343-1.633A4.8,4.8,0,0,0,62.363,8.1c-1.888,0-3.262,1.05-3.262,2.508,0,1.109.973,1.691,1.66,2.042.743.35,1.029.583.972.933,0,.525-.572.758-1.144.758a4.789,4.789,0,0,1-2-.467l-.343,1.634a5.473,5.473,0,0,0,2.117.408c2.117.058,3.433-.992,3.433-2.567C63.793,11.367,61.1,11.25,61.1,10.376Zm9.5,5.483L69.056,8.275H67.4a.862.862,0,0,0-.8.583l-2.86,7h2l.4-1.108H68.6l.229,1.108Zm-2.917-5.541.571,2.858h-1.6Z" transform="translate(-0.5 -0.5)" fill="#172b85" fill-rule="evenodd"/>
</svg>
